<svg xmlns="http://www.w3.org/2000/svg" viewBox="0 0 877 620">
    <g>
        <line x1="20" x2="20" y1="0" y2="620" />
        <line x1="40" x2="40" y1="0" y2="620" />
        <line x1="60" x2="60" y1="0" y2="620" />
        <line x1="80" x2="80" y1="0" y2="620" />
        <line x1="100" x2="100" y1="0" y2="620" />
        <line x1="120" x2="120" y1="0" y2="620" />
        <line x1="140" x2="140" y1="0" y2="620" />
        <line x1="160" x2="160" y1="0" y2="620" />
        <line x1="180" x2="180" y1="0" y2="620" />
        <line x1="200" x2="200" y1="0" y2="620" />
        <line x1="220" x2="220" y1="0" y2="620" />
        <line x1="240" x2="240" y1="0" y2="620" />
        <line x1="260" x2="260" y1="0" y2="620" />
        <line x1="280" x2="280" y1="0" y2="620" />
        <line x1="300" x2="300" y1="0" y2="620" />
        <line x1="320" x2="320" y1="0" y2="620" />
        <line x1="340" x2="340" y1="0" y2="620" />
        <line x1="360" x2="360" y1="0" y2="620" />
        <line x1="380" x2="380" y1="0" y2="620" />
        <line x1="400" x2="400" y1="0" y2="620" />
        <line x1="420" x2="420" y1="0" y2="620" />
        <line x1="440" x2="440" y1="0" y2="620" />
        <line x1="460" x2="460" y1="0" y2="620" />
        <line x1="480" x2="480" y1="0" y2="620" />
        <line x1="500" x2="500" y1="0" y2="620" />
        <line x1="520" x2="520" y1="0" y2="620" />
        <line x1="540" x2="540" y1="0" y2="620" />
        <line x1="560" x2="560" y1="0" y2="620" />
        <line x1="580" x2="580" y1="0" y2="620" />
        <line x1="600" x2="600" y1="0" y2="620" />
        <line x1="620" x2="620" y1="0" y2="620" />
        <line x1="640" x2="640" y1="0" y2="620" />
        <line x1="660" x2="660" y1="0" y2="620" />
        <line x1="680" x2="680" y1="0" y2="620" />
        <line x1="700" x2="700" y1="0" y2="620" />
        <line x1="720" x2="720" y1="0" y2="620" />
        <line x1="740" x2="740" y1="0" y2="620" />
        <line x1="760" x2="760" y1="0" y2="620" />
        <line x1="780" x2="780" y1="0" y2="620" />
        <line x1="800" x2="800" y1="0" y2="620" />
        <line x1="820" x2="820" y1="0" y2="620" />
        <line x1="840" x2="840" y1="0" y2="620" />
        <line x1="860" x2="860" y1="0" y2="620" />

        <line x1="0" x2="877" y1="20" y2="20" />
        <line x1="0" x2="877" y1="40" y2="40" />
        <line x1="0" x2="877" y1="60" y2="60" />
        <line x1="0" x2="877" y1="80" y2="80" />
        <line x1="0" x2="877" y1="100" y2="100" />
        <line x1="0" x2="877" y1="120" y2="120" />
        <line x1="0" x2="877" y1="140" y2="140" />
        <line x1="0" x2="877" y1="160" y2="160" />
        <line x1="0" x2="877" y1="180" y2="180" />
        <line x1="0" x2="877" y1="200" y2="200" />
        <line x1="0" x2="877" y1="220" y2="220" />
        <line x1="0" x2="877" y1="240" y2="240" />
        <line x1="0" x2="877" y1="260" y2="260" />
        <line x1="0" x2="877" y1="280" y2="280" />
        <line x1="0" x2="877" y1="300" y2="300" />
        <line x1="0" x2="877" y1="320" y2="320" />
        <line x1="0" x2="877" y1="340" y2="340" />
        <line x1="0" x2="877" y1="360" y2="360" />
        <line x1="0" x2="877" y1="380" y2="380" />
        <line x1="0" x2="877" y1="400" y2="400" />
        <line x1="0" x2="877" y1="420" y2="420" />
        <line x1="0" x2="877" y1="440" y2="440" />
        <line x1="0" x2="877" y1="460" y2="460" />
        <line x1="0" x2="877" y1="480" y2="480" />
        <line x1="0" x2="877" y1="500" y2="500" />
        <line x1="0" x2="877" y1="520" y2="520" />
        <line x1="0" x2="877" y1="540" y2="540" />
        <line x1="0" x2="877" y1="560" y2="560" />
        <line x1="0" x2="877" y1="580" y2="580" />
        <line x1="0" x2="877" y1="600" y2="600" />
    </g>
</svg>