<svg xmlns="http://www.w3.org/2000/svg" viewBox="0 0 620 877">
    <g>
        <line x1="0" x2="620" y1="20" y2="20" />
        <line x1="0" x2="620" y1="40" y2="40" />
        <line x1="0" x2="620" y1="60" y2="60" />
        <line x1="0" x2="620" y1="80" y2="80" />
        <line x1="0" x2="620" y1="100" y2="100" />
        <line x1="0" x2="620" y1="120" y2="120" />
        <line x1="0" x2="620" y1="140" y2="140" />
        <line x1="0" x2="620" y1="160" y2="160" />
        <line x1="0" x2="620" y1="180" y2="180" />
        <line x1="0" x2="620" y1="200" y2="200" />
        <line x1="0" x2="620" y1="220" y2="220" />
        <line x1="0" x2="620" y1="240" y2="240" />
        <line x1="0" x2="620" y1="260" y2="260" />
        <line x1="0" x2="620" y1="280" y2="280" />
        <line x1="0" x2="620" y1="300" y2="300" />
        <line x1="0" x2="620" y1="320" y2="320" />
        <line x1="0" x2="620" y1="340" y2="340" />
        <line x1="0" x2="620" y1="360" y2="360" />
        <line x1="0" x2="620" y1="380" y2="380" />
        <line x1="0" x2="620" y1="400" y2="400" />
        <line x1="0" x2="620" y1="420" y2="420" />
        <line x1="0" x2="620" y1="440" y2="440" />
        <line x1="0" x2="620" y1="460" y2="460" />
        <line x1="0" x2="620" y1="480" y2="480" />
        <line x1="0" x2="620" y1="500" y2="500" />
        <line x1="0" x2="620" y1="520" y2="520" />
        <line x1="0" x2="620" y1="540" y2="540" />
        <line x1="0" x2="620" y1="560" y2="560" />
        <line x1="0" x2="620" y1="580" y2="580" />
        <line x1="0" x2="620" y1="600" y2="600" />
        <line x1="0" x2="620" y1="620" y2="620" />
        <line x1="0" x2="620" y1="640" y2="640" />
        <line x1="0" x2="620" y1="660" y2="660" />
        <line x1="0" x2="620" y1="680" y2="680" />
        <line x1="0" x2="620" y1="700" y2="700" />
        <line x1="0" x2="620" y1="720" y2="720" />
        <line x1="0" x2="620" y1="740" y2="740" />
        <line x1="0" x2="620" y1="760" y2="760" />
        <line x1="0" x2="620" y1="780" y2="780" />
        <line x1="0" x2="620" y1="800" y2="800" />
        <line x1="0" x2="620" y1="820" y2="820" />
        <line x1="0" x2="620" y1="840" y2="840" />
        <line x1="0" x2="620" y1="860" y2="860" />
    </g>
</svg>