<?xml version="1.0" standalone="no"?>
<!DOCTYPE svg PUBLIC "-//W3C//DTD SVG 20010904//EN"
 "http://www.w3.org/TR/2001/REC-SVG-20010904/DTD/svg10.dtd">
<svg version="1.0" xmlns="http://www.w3.org/2000/svg"
 width="108.000000pt" height="108.000000pt" viewBox="0 0 108.000000 108.000000"
 preserveAspectRatio="xMidYMid meet">
<metadata>
Created by potrace 1.11, written by Peter Selinger 2001-2013
</metadata>
<g transform="translate(0.000000,108.000000) scale(0.100000,-0.100000)"
fill="#000000" stroke="none">
<path d="M0 620 c0 -398 2 -460 15 -460 8 0 30 -16 49 -35 28 -27 34 -41 31
-65 -2 -16 1 -30 6 -30 6 0 17 -7 25 -15 13 -12 54 -15 246 -15 222 0 234 1
310 26 96 32 138 69 181 162 17 37 43 83 58 102 32 42 47 87 53 156 3 42 9 57
38 85 63 62 68 75 68 175 0 100 -5 124 -26 124 -7 0 -23 14 -36 30 -12 17 -27
30 -32 30 -6 0 -24 7 -40 15 -27 14 -30 14 -47 -4 -15 -16 -16 -25 -8 -56 6
-21 8 -47 5 -59 -32 -130 -34 -146 -17 -169 26 -34 71 -141 71 -169 0 -48
-103 -217 -132 -218 -5 0 -8 7 -8 15 0 8 -4 15 -10 15 -5 0 -10 -4 -10 -10 0
-5 -7 -10 -15 -10 -8 0 -15 5 -15 10 0 6 6 10 14 10 8 0 36 20 61 44 34 31 48
51 48 70 0 36 -3 37 -48 22 -22 -7 -57 -16 -77 -19 -33 -5 -38 -3 -38 13 0 10
5 22 11 26 16 10 2 64 -22 87 -17 16 -29 18 -65 12 -25 -3 -54 -15 -65 -26
-22 -22 -25 -67 -5 -94 26 -36 10 -44 -81 -44 -55 0 -90 -4 -100 -13 -13 -10
-17 -10 -20 0 -3 6 -12 12 -21 12 -12 0 -18 10 -19 30 -2 34 -27 65 -43 55 -5
-3 -10 3 -10 14 0 10 5 21 11 23 16 5 -7 55 -30 63 -10 3 -22 13 -26 23 -5 14
-7 14 -15 2 -8 -12 -10 -10 -10 7 0 15 -5 21 -13 17 -8 -3 -25 9 -38 26 -13
18 -32 40 -42 50 -32 32 -39 153 -10 179 10 9 13 10 5 1 -17 -20 -15 -35 3
-20 12 10 14 27 11 71 -2 33 0 59 5 59 10 0 32 46 33 70 1 10 14 16 43 18 34
3 44 -1 53 -17 6 -12 18 -21 27 -21 9 0 31 -11 49 -25 38 -29 50 -31 58 -10 3
8 12 12 21 9 11 -4 15 0 15 16 0 18 4 21 25 18 17 -4 25 -1 25 8 0 8 3 14 8
14 4 0 15 12 26 26 l18 26 -144 -4 c-110 -2 -149 -7 -163 -18 -17 -14 -18 -13
-12 3 6 16 -3 17 -103 17 l-110 0 0 -460z m114 283 c-3 -39 -4 -40 -14 -21 -6
9 -7 23 -4 32 10 25 20 19 18 -11z m816 -94 c0 -5 -4 -9 -10 -9 -5 0 -10 7
-10 16 0 8 5 12 10 9 6 -3 10 -10 10 -16z"/>
<path d="M770 1072 c0 -5 13 -21 30 -37 16 -15 27 -33 23 -39 -3 -6 3 -3 13 8
14 13 15 20 7 23 -7 3 -13 14 -13 26 0 18 -2 19 -10 7 -8 -13 -10 -12 -10 3 0
10 -8 17 -20 17 -11 0 -20 -4 -20 -8z"/>
<path d="M850 971 c0 -5 5 -13 10 -16 6 -3 10 -2 10 4 0 5 -4 13 -10 16 -5 3
-10 2 -10 -4z"/>
<path d="M870 930 c0 -5 5 -10 11 -10 5 0 7 5 4 10 -3 6 -8 10 -11 10 -2 0 -4
-4 -4 -10z"/>
<path d="M746 756 c4 -10 0 -13 -14 -9 -26 6 -35 -28 -15 -57 23 -33 72 -11
73 33 0 9 -7 17 -15 17 -8 0 -15 7 -15 15 0 8 -4 15 -10 15 -5 0 -7 -6 -4 -14z"/>
<path d="M333 673 c-14 -21 -14 -26 1 -48 19 -29 33 -31 64 -9 24 17 30 58 10
71 -25 16 -60 9 -75 -14z"/>
<path d="M335 559 c7 -11 65 -12 65 -1 0 4 -16 8 -35 9 -20 1 -33 -3 -30 -8z"/>
<path d="M1022 122 c-17 -5 -15 -29 3 -36 24 -9 17 -24 -15 -31 -16 -4 -32
-11 -35 -15 -8 -12 48 -40 80 -40 24 0 25 2 25 59 0 53 -2 59 -23 63 -12 2
-28 3 -35 0z"/>
<path d="M0 25 c0 -24 3 -26 38 -23 29 2 37 7 37 23 0 15 -8 20 -37 22 -35 3
-38 1 -38 -22z"/>
<path d="M830 15 l-25 -14 26 -1 c15 0 29 7 33 15 7 18 -2 18 -34 0z"/>
</g>
</svg>
